<svg xmlns="http://www.w3.org/2000/svg" id="canvas" viewBox="450.752 329.014 532.736 145.438"><path d="M 546.11,348.85 C 545.57 347.90, 544.72 347.33, 542.95 346.75 C 541.19 346.17, 539.92 345.77, 537.29 345.96 C 534.67 346.15, 532.97 346.52, 529.85 347.71 C 526.72 348.91, 525.17 349.92, 521.66 351.95 C 518.15 353.97, 516.25 355.11, 512.30 357.84 C 508.35 360.56, 506.17 362.10, 501.92 365.58 C 497.67 369.06, 495.37 371.04, 491.06 375.22 C 486.74 379.40, 484.44 381.73, 480.35 386.48 C 476.26 391.23, 474.17 393.87, 470.62 398.97 C 467.07 404.06, 465.34 406.78, 462.59 411.93 C 459.84 417.08, 458.58 419.75, 456.87 424.71 C 455.16 429.67, 454.50 432.16, 454.04 436.73 C 453.58 441.30, 453.61 443.60, 454.58 447.57 C 455.55 451.54, 456.44 453.54, 458.90 456.56 C 461.37 459.58, 463.11 460.91, 466.89 462.67 C 470.67 464.42, 472.96 464.98, 477.80 465.34 C 482.64 465.71, 485.41 465.49, 491.08 464.49 C 496.75 463.50, 499.86 462.60, 506.15 460.37 C 512.44 458.14, 515.82 456.67, 522.52 453.34 C 529.23 450.02, 532.78 448.00, 539.66 443.75 C 546.54 439.50, 550.09 437.07, 556.93 432.10 C 563.76 427.13, 567.28 424.35, 573.83 418.91 C 580.38 413.47, 583.66 410.52, 589.68 404.89 C 595.69 399.26, 598.65 396.29, 603.89 390.75 C 609.13 385.22, 611.61 382.40, 615.88 377.22 C 620.14 372.04, 622.09 369.46, 625.21 364.85 C 628.32 360.23, 629.58 358.06, 631.44 354.13 C 633.30 350.21, 634.11 348.46, 634.50 345.24 C 634.90 342.01, 634.58 340.38, 633.41 338.01 C 632.24 335.64, 631.07 334.55, 628.65 333.38 C 626.24 332.22, 624.47 331.74, 621.33 332.17 C 618.18 332.61, 616.39 333.59, 612.92 335.56 C 609.45 337.53, 607.61 338.90, 603.98 342.02 C 600.34 345.14, 598.42 347.03, 594.74 351.17 C 591.06 355.32, 589.10 357.75, 585.58 362.76 C 582.06 367.77, 580.27 370.58, 577.13 376.23 C 574.00 381.88, 572.44 384.98, 569.91 390.99 C 567.37 396.99, 566.17 400.26, 564.46 406.26 C 562.74 412.26, 562.03 415.37, 561.32 420.98 C 560.61 426.58, 560.45 429.39, 560.92 434.29 C 561.40 439.19, 561.89 441.61, 563.70 445.47 C 565.50 449.33, 566.82 451.10, 569.95 453.57 C 573.08 456.05, 575.16 456.94, 579.33 457.84 C 583.51 458.75, 585.96 458.64, 590.82 458.10 C 595.68 457.55, 598.31 456.75, 603.63 455.12 C 608.96 453.48, 611.83 452.29, 617.43 449.90 C 623.03 447.51, 626.02 445.97, 631.65 443.17 C 637.27 440.37, 640.21 438.73, 645.55 435.91 C 650.90 433.08, 653.61 431.57, 658.36 429.04 C 663.11 426.51, 665.40 425.23, 669.31 423.27 C 673.22 421.31, 675.10 420.64, 677.91 419.24 C 680.71 417.85, 681.85 417.37, 683.33 416.29 C 684.82 415.21, 685.08 414.78, 685.34 413.84 C 685.60 412.91, 685.36 412.41, 684.62 411.61 C 683.87 410.81, 683.13 410.10, 681.61 409.85 C 680.08 409.61, 678.99 409.82, 676.99 410.40 C 674.99 410.97, 673.92 411.68, 671.59 412.73 C 669.26 413.78, 667.87 414.25, 665.34 415.63 C 662.81 417.02, 661.43 417.85, 658.94 419.66 C 656.46 421.48, 655.16 422.53, 652.90 424.72 C 650.64 426.91, 649.44 428.15, 647.65 430.62 C 645.87 433.09, 645.06 434.45, 644.00 437.05 C 642.93 439.65, 642.49 441.10, 642.33 443.62 C 642.17 446.14, 642.33 447.50, 643.21 449.66 C 644.08 451.81, 644.87 452.91, 646.69 454.39 C 648.51 455.86, 649.77 456.49, 652.29 457.02 C 654.82 457.56, 656.41 457.61, 659.33 457.06 C 662.24 456.51, 663.84 455.80, 666.87 454.29 C 669.89 452.78, 671.42 451.67, 674.45 449.53 C 677.47 447.39, 679.06 446.13, 682.01 443.58 C 684.95 441.04, 686.44 439.54, 689.17 436.81 C 691.89 434.08, 693.28 432.58, 695.62 429.94 C 697.96 427.29, 699.54 425.82, 700.85 423.59 C 702.15 421.37, 702.26 420.03, 702.14 418.81 C 702.01 417.59, 701.29 417.29, 700.23 417.51 C 699.17 417.74, 698.07 418.23, 696.84 419.92 C 695.62 421.60, 694.77 423.22, 694.10 425.93 C 693.43 428.65, 693.44 430.54, 693.49 433.51 C 693.53 436.49, 693.63 438.11, 694.33 440.79 C 695.02 443.47, 695.47 444.83, 696.97 446.91 C 698.46 449.00, 699.49 449.99, 701.80 451.21 C 704.10 452.42, 705.60 452.89, 708.49 452.98 C 711.37 453.07, 713.05 452.69, 716.23 451.66 C 719.41 450.62, 721.09 449.63, 724.38 447.81 C 727.66 446.00, 729.38 444.81, 732.68 442.58 C 735.98 440.35, 737.71 439.01, 740.87 436.66 C 744.04 434.31, 745.68 432.96, 748.51 430.82 C 751.33 428.69, 753.13 427.58, 754.99 425.98 C 756.85 424.38, 757.30 423.43, 757.81 422.82 C 758.32 422.22, 757.99 422.24, 757.53 422.96 C 757.07 423.69, 756.36 424.47, 755.50 426.45 C 754.65 428.44, 754.10 430.13, 753.24 432.89 C 752.39 435.66, 751.83 437.54, 751.23 440.28 C 750.62 443.03, 750.25 444.50, 750.23 446.63 C 750.22 448.75, 750.32 449.74, 751.16 450.90 C 751.99 452.06, 752.92 452.49, 754.40 452.42 C 755.88 452.34, 756.95 451.87, 758.55 450.54 C 760.15 449.21, 760.96 447.99, 762.41 445.76 C 763.85 443.54, 764.34 441.92, 765.78 439.41 C 767.23 436.89, 767.98 435.46, 769.62 433.19 C 771.26 430.92, 772.22 429.89, 773.98 428.05 C 775.74 426.21, 776.55 425.29, 778.40 423.98 C 780.24 422.68, 781.12 422.22, 783.21 421.51 C 785.30 420.80, 786.39 420.73, 788.85 420.43 C 791.31 420.14, 792.58 420.06, 795.52 420.03 C 798.46 420.00, 800.09 420.14, 803.54 420.27 C 807.00 420.40, 808.88 420.55, 812.79 420.70 C 816.69 420.85, 818.79 420.93, 823.07 421.01 C 827.34 421.09, 829.72 421.15, 834.17 421.09 C 838.62 421.04, 840.95 420.93, 845.30 420.74 C 849.64 420.55, 851.86 420.36, 855.88 420.13 C 859.91 419.91, 862.08 419.94, 865.43 419.63 C 868.79 419.32, 870.41 419.25, 872.65 418.59 C 874.88 417.93, 875.72 417.39, 876.59 416.32 C 877.46 415.25, 877.75 414.27, 876.99 413.22 C 876.23 412.17, 875.00 411.36, 872.80 411.07 C 870.59 410.79, 868.95 410.95, 865.98 411.78 C 863.02 412.62, 861.33 413.69, 857.95 415.25 C 854.58 416.80, 852.58 417.61, 849.11 419.56 C 845.65 421.51, 843.82 422.66, 840.65 425.00 C 837.47 427.33, 835.85 428.68, 833.24 431.25 C 830.62 433.82, 829.23 435.12, 827.56 437.83 C 825.90 440.54, 825.28 442.13, 824.92 444.80 C 824.56 447.48, 824.74 448.97, 825.76 451.20 C 826.78 453.42, 827.78 454.56, 830.01 455.91 C 832.25 457.27, 833.84 457.87, 836.93 457.98 C 840.02 458.10, 841.89 457.55, 845.45 456.48 C 849.01 455.42, 850.95 454.51, 854.73 452.66 C 858.52 450.81, 860.54 449.64, 864.37 447.23 C 868.20 444.81, 870.22 443.34, 873.86 440.57 C 877.51 437.79, 879.34 436.16, 882.61 433.34 C 885.88 430.53, 887.97 428.93, 890.22 426.49 C 892.46 424.04, 893.32 422.61, 893.84 421.12 C 894.35 419.63, 893.72 419.01, 892.79 419.03 C 891.86 419.05, 890.61 419.44, 889.21 421.21 C 887.81 422.99, 886.77 424.76, 885.77 427.90 C 884.77 431.03, 884.55 433.36, 884.21 436.88 C 883.88 440.41, 883.62 442.32, 884.10 445.53 C 884.57 448.75, 885.07 450.35, 886.58 452.96 C 888.10 455.58, 889.19 456.89, 891.69 458.61 C 894.19 460.34, 895.82 461.02, 899.08 461.56 C 902.33 462.11, 904.27 461.86, 907.96 461.33 C 911.66 460.81, 913.67 460.23, 917.55 458.95 C 921.43 457.67, 923.51 456.71, 927.38 454.95 C 931.26 453.18, 933.23 452.10, 936.93 450.13 C 940.63 448.16, 942.79 446.98, 945.87 445.10 C 948.94 443.23, 950.41 442.42, 952.30 440.76 C 954.20 439.09, 954.98 437.90, 955.36 436.78 C 955.73 435.66, 955.31 435.17, 954.16 435.17 C 953.02 435.17, 951.82 435.70, 949.63 436.81 C 947.43 437.92, 946.16 438.87, 943.17 440.72 C 940.19 442.57, 938.23 444.05, 934.69 446.06 C 931.16 448.06, 929.22 449.11, 925.50 450.74 C 921.78 452.38, 919.73 453.19, 916.10 454.22 C 912.46 455.25, 910.54 455.62, 907.33 455.91 C 904.12 456.19, 902.55 456.05, 900.05 455.65 C 897.55 455.24, 896.53 454.98, 894.82 453.90 C 893.10 452.83, 892.40 452.07, 891.47 450.26 C 890.54 448.45, 890.31 447.35, 890.17 444.87 C 890.02 442.39, 890.12 440.78, 890.74 437.85 C 891.37 434.93, 892.41 433.10, 893.28 430.25 C 894.16 427.39, 894.91 425.78, 895.10 423.57 C 895.29 421.37, 895.02 420.24, 894.23 419.22 C 893.45 418.21, 892.77 417.83, 891.16 418.52 C 889.56 419.20, 888.53 420.34, 886.22 422.65 C 883.90 424.95, 882.56 427.12, 879.58 430.04 C 876.60 432.95, 874.81 434.53, 871.30 437.22 C 867.80 439.91, 865.79 441.28, 862.08 443.47 C 858.36 445.66, 856.32 446.70, 852.71 448.18 C 849.10 449.67, 847.16 450.25, 844.02 450.90 C 840.88 451.55, 839.35 451.39, 837.03 451.43 C 834.71 451.46, 833.80 451.51, 832.42 451.07 C 831.03 450.63, 830.57 450.28, 830.11 449.23 C 829.65 448.18, 829.62 447.47, 830.10 445.80 C 830.58 444.14, 831.13 443.07, 832.50 440.89 C 833.87 438.70, 834.72 437.26, 836.94 434.88 C 839.16 432.50, 840.68 431.15, 843.60 429.00 C 846.52 426.85, 848.25 425.76, 851.54 424.12 C 854.83 422.48, 856.80 421.77, 860.06 420.81 C 863.33 419.84, 865.15 419.89, 867.87 419.30 C 870.59 418.70, 871.91 418.64, 873.68 417.83 C 875.46 417.02, 876.35 416.15, 876.73 415.25 C 877.10 414.35, 876.59 413.74, 875.56 413.32 C 874.52 412.90, 873.71 412.95, 871.56 413.16 C 869.41 413.37, 868.00 413.90, 864.80 414.39 C 861.59 414.88, 859.46 415.19, 855.52 415.61 C 851.58 416.03, 849.36 416.24, 845.08 416.48 C 840.81 416.72, 838.51 416.80, 834.14 416.81 C 829.76 416.82, 827.42 416.72, 823.21 416.53 C 819.00 416.33, 816.95 416.17, 813.09 415.83 C 809.23 415.50, 807.42 415.22, 803.93 414.86 C 800.43 414.50, 798.78 414.14, 795.61 414.02 C 792.43 413.90, 790.95 413.88, 788.07 414.26 C 785.19 414.64, 783.83 414.95, 781.22 415.91 C 778.62 416.87, 777.38 417.52, 775.04 419.05 C 772.70 420.59, 771.63 421.57, 769.52 423.60 C 767.41 425.64, 766.42 426.87, 764.49 429.24 C 762.55 431.62, 761.66 433.07, 759.85 435.47 C 758.03 437.87, 756.83 439.04, 755.42 441.23 C 754.00 443.43, 753.32 444.71, 752.76 446.45 C 752.19 448.20, 752.35 449.12, 752.59 449.97 C 752.83 450.81, 753.25 451.04, 753.95 450.67 C 754.65 450.29, 755.19 449.72, 756.11 448.08 C 757.02 446.43, 757.57 445.03, 758.53 442.43 C 759.50 439.84, 760.18 438.03, 760.95 435.10 C 761.72 432.16, 762.38 430.36, 762.39 427.76 C 762.40 425.17, 762.04 423.78, 761.01 422.14 C 759.99 420.50, 759.18 419.78, 757.28 419.57 C 755.39 419.36, 753.95 419.65, 751.53 421.08 C 749.11 422.51, 747.90 424.37, 745.18 426.71 C 742.47 429.04, 740.99 430.43, 737.94 432.77 C 734.89 435.10, 733.15 436.35, 729.93 438.38 C 726.72 440.41, 724.98 441.45, 721.87 442.91 C 718.76 444.36, 717.07 444.89, 714.38 445.66 C 711.70 446.43, 710.49 446.65, 708.46 446.76 C 706.43 446.87, 705.60 446.80, 704.22 446.22 C 702.84 445.64, 702.30 445.18, 701.54 443.88 C 700.79 442.57, 700.57 441.66, 700.45 439.70 C 700.32 437.75, 700.43 436.46, 700.91 434.12 C 701.38 431.77, 702.28 430.41, 702.82 427.99 C 703.36 425.57, 703.68 424.01, 703.60 422.01 C 703.51 420.01, 703.18 419.00, 702.39 417.99 C 701.60 416.97, 701.00 416.54, 699.66 416.93 C 698.32 417.31, 697.34 418.00, 695.69 419.91 C 694.04 421.82, 693.41 423.80, 691.39 426.48 C 689.37 429.16, 688.12 430.67, 685.59 433.32 C 683.06 435.96, 681.57 437.37, 678.73 439.69 C 675.90 442.02, 674.30 443.17, 671.41 444.95 C 668.52 446.74, 666.96 447.52, 664.28 448.62 C 661.60 449.71, 660.24 449.96, 658.02 450.43 C 655.80 450.90, 654.81 451.03, 653.20 450.95 C 651.59 450.87, 650.96 450.65, 649.96 450.02 C 648.95 449.38, 648.56 448.93, 648.17 447.77 C 647.79 446.61, 647.73 445.87, 648.02 444.24 C 648.32 442.60, 648.67 441.54, 649.65 439.58 C 650.62 437.62, 651.35 436.51, 652.89 434.46 C 654.42 432.40, 655.35 431.18, 657.32 429.30 C 659.28 427.42, 660.47 426.54, 662.71 425.06 C 664.95 423.57, 666.21 422.95, 668.52 421.87 C 670.84 420.78, 672.09 420.34, 674.27 419.64 C 676.45 418.94, 677.62 418.95, 679.42 418.37 C 681.22 417.78, 682.15 417.60, 683.27 416.72 C 684.39 415.83, 684.82 414.92, 685.02 413.96 C 685.22 413.00, 685.02 412.27, 684.25 411.91 C 683.48 411.55, 682.91 411.57, 681.18 412.17 C 679.45 412.77, 678.35 413.36, 675.61 414.91 C 672.87 416.46, 671.23 417.66, 667.47 419.91 C 663.70 422.16, 661.44 423.50, 656.77 426.16 C 652.10 428.81, 649.40 430.35, 644.11 433.20 C 638.81 436.06, 635.88 437.69, 630.29 440.44 C 624.71 443.18, 621.72 444.68, 616.19 446.94 C 610.66 449.20, 607.79 450.28, 602.64 451.73 C 597.48 453.18, 594.91 453.79, 590.42 454.20 C 585.94 454.60, 583.80 454.53, 580.22 453.75 C 576.64 452.97, 575.12 452.27, 572.52 450.28 C 569.91 448.29, 568.83 447.06, 567.20 443.78 C 565.58 440.51, 564.94 438.40, 564.39 433.91 C 563.83 429.42, 563.86 426.71, 564.44 421.34 C 565.02 415.97, 565.67 412.90, 567.29 407.06 C 568.91 401.21, 570.08 397.98, 572.56 392.11 C 575.05 386.23, 576.59 383.18, 579.71 377.68 C 582.84 372.18, 584.64 369.44, 588.18 364.63 C 591.71 359.81, 593.70 357.48, 597.40 353.63 C 601.10 349.77, 603.08 348.04, 606.67 345.37 C 610.25 342.69, 612.20 341.67, 615.33 340.26 C 618.47 338.84, 620.02 338.74, 622.34 338.27 C 624.65 337.80, 625.48 337.59, 626.91 337.90 C 628.34 338.22, 628.90 338.49, 629.48 339.85 C 630.06 341.21, 630.10 342.12, 629.81 344.69 C 629.52 347.25, 629.47 348.97, 628.04 352.67 C 626.62 356.38, 625.52 358.63, 622.68 363.21 C 619.85 367.80, 617.97 370.41, 613.87 375.60 C 609.77 380.79, 607.33 383.62, 602.19 389.16 C 597.05 394.70, 594.12 397.67, 588.17 403.28 C 582.22 408.90, 578.95 411.83, 572.44 417.24 C 565.94 422.64, 562.43 425.40, 555.63 430.30 C 548.82 435.20, 545.27 437.59, 538.43 441.74 C 531.58 445.88, 528.04 447.84, 521.39 451.02 C 514.75 454.19, 511.37 455.57, 505.20 457.59 C 499.03 459.61, 495.95 460.36, 490.55 461.13 C 485.14 461.90, 482.52 461.91, 478.16 461.43 C 473.79 460.96, 471.91 460.30, 468.74 458.77 C 465.56 457.23, 464.33 456.22, 462.30 453.77 C 460.26 451.33, 459.49 449.88, 458.58 446.54 C 457.67 443.19, 457.45 441.20, 457.75 437.05 C 458.04 432.89, 458.53 430.50, 460.05 425.76 C 461.56 421.03, 462.73 418.40, 465.34 413.38 C 467.95 408.36, 469.62 405.66, 473.09 400.68 C 476.55 395.70, 478.61 393.10, 482.65 388.47 C 486.69 383.85, 488.98 381.58, 493.28 377.57 C 497.58 373.55, 499.90 371.65, 504.15 368.40 C 508.41 365.15, 510.61 363.72, 514.56 361.33 C 518.52 358.93, 520.49 357.94, 523.94 356.44 C 527.38 354.94, 528.99 354.53, 531.80 353.82 C 534.61 353.12, 535.85 353.20, 537.98 352.92 C 540.11 352.64, 540.92 352.72, 542.45 352.43 C 543.98 352.15, 544.90 352.20, 545.63 351.48 C 546.36 350.77, 546.65 349.80, 546.11 348.85" style="stroke: black; fill: black;"/><path d="M 979.61,471.37 C 980.22 471.65, 980.69 471.17, 980.40 470.57 C 980.10 469.96, 978.74 468.62, 978.13 468.33 C 977.52 468.04, 977.04 468.52, 977.34 469.13 C 977.64 469.74, 979.00 471.08, 979.61 471.37" style="stroke: black; fill: black;"/></svg>