<svg xmlns="http://www.w3.org/2000/svg" id="canvas" viewBox="642.728 348.422 412.223 210.796"><path d="M 652.98,354.60 C 652.31 356.36, 652.61 358.70, 652.42 363.43 C 652.22 368.16, 652.22 371.27, 652.00 378.25 C 651.79 385.23, 651.71 389.92, 651.33 398.34 C 650.96 406.75, 650.65 411.41, 650.13 420.31 C 649.62 429.21, 649.29 434.03, 648.76 442.83 C 648.24 451.63, 647.96 456.31, 647.49 464.32 C 647.01 472.33, 646.74 476.26, 646.39 482.86 C 646.04 489.47, 645.78 492.78, 645.74 497.34 C 645.69 501.90, 645.79 503.39, 646.18 505.67 C 646.57 507.96, 647.13 508.19, 647.68 508.78 C 648.23 509.37, 648.53 509.30, 648.94 508.63 C 649.34 507.97, 649.61 507.71, 649.70 505.44 C 649.79 503.18, 649.49 501.82, 649.39 497.32 C 649.29 492.82, 649.10 489.54, 649.21 482.96 C 649.31 476.39, 649.54 472.45, 649.91 464.45 C 650.28 456.45, 650.54 451.76, 651.06 442.97 C 651.58 434.17, 651.91 429.36, 652.51 420.46 C 653.11 411.56, 653.51 406.90, 654.05 398.48 C 654.59 390.07, 654.82 385.38, 655.22 378.39 C 655.62 371.40, 655.95 368.29, 656.07 363.55 C 656.18 358.80, 656.40 356.43, 655.79 354.64 C 655.17 352.85, 653.65 352.84, 652.98 354.60" style="stroke: black; fill: black;"/><path d="M 736.68,351.82 C 735.59 352.53, 735.13 353.59, 733.77 356.19 C 732.40 358.78, 732.12 360.74, 729.88 364.79 C 727.63 368.84, 726.12 371.62, 722.56 376.45 C 719.01 381.27, 716.69 384.07, 712.09 388.92 C 707.49 393.78, 704.66 396.35, 699.56 400.73 C 694.46 405.11, 691.54 407.35, 686.60 410.84 C 681.65 414.33, 679.09 415.90, 674.85 418.20 C 670.61 420.50, 668.48 421.07, 665.39 422.34 C 662.31 423.61, 661.04 423.67, 659.43 424.56 C 657.81 425.44, 657.49 425.83, 657.32 426.78 C 657.15 427.73, 657.43 428.39, 658.56 429.30 C 659.69 430.21, 660.43 430.91, 662.96 431.34 C 665.50 431.78, 667.33 431.22, 671.23 431.49 C 675.13 431.77, 677.59 431.92, 682.46 432.71 C 687.33 433.51, 690.05 434.13, 695.58 435.47 C 701.11 436.80, 704.19 437.70, 710.10 439.39 C 716.01 441.08, 719.16 442.09, 725.14 443.92 C 731.11 445.74, 734.15 446.79, 739.99 448.52 C 745.82 450.24, 748.79 451.17, 754.33 452.55 C 759.87 453.94, 762.58 454.62, 767.70 455.45 C 772.82 456.27, 775.26 456.59, 779.92 456.68 C 784.57 456.77, 786.81 456.68, 790.97 455.91 C 795.13 455.14, 797.11 454.50, 800.71 452.84 C 804.31 451.19, 806.04 450.06, 808.98 447.63 C 811.91 445.19, 813.31 443.72, 815.38 440.66 C 817.45 437.61, 818.35 435.72, 819.33 432.35 C 820.31 428.99, 820.61 427.09, 820.30 423.84 C 819.99 420.59, 819.38 418.80, 817.77 416.09 C 816.16 413.38, 814.87 412.00, 812.25 410.29 C 809.62 408.58, 807.82 407.90, 804.63 407.54 C 801.44 407.17, 799.51 407.33, 796.28 408.46 C 793.05 409.60, 791.23 410.68, 788.50 413.21 C 785.76 415.74, 784.38 417.53, 782.60 421.13 C 780.82 424.73, 780.12 427.03, 779.58 431.21 C 779.04 435.40, 778.97 437.79, 779.89 442.06 C 780.81 446.33, 781.74 448.71, 784.17 452.58 C 786.60 456.45, 788.35 458.40, 792.05 461.42 C 795.75 464.44, 798.07 465.77, 802.68 467.69 C 807.29 469.61, 809.97 470.30, 815.08 471.02 C 820.20 471.74, 823.00 471.78, 828.25 471.29 C 833.50 470.79, 836.28 470.18, 841.32 468.54 C 846.36 466.90, 848.92 465.76, 853.44 463.09 C 857.96 460.41, 860.18 458.66, 863.92 455.17 C 867.66 451.68, 869.31 449.48, 872.15 445.64 C 874.99 441.81, 876.23 439.56, 878.10 435.99 C 879.98 432.42, 881.06 430.24, 881.52 427.81 C 881.98 425.37, 881.09 424.20, 880.41 423.83 C 879.74 423.45, 878.69 424.19, 878.14 425.94 C 877.60 427.68, 877.09 429.50, 877.69 432.55 C 878.29 435.60, 879.31 437.84, 881.13 441.18 C 882.96 444.51, 884.21 446.48, 886.83 449.22 C 889.45 451.96, 890.98 453.27, 894.23 454.89 C 897.48 456.51, 899.41 457.08, 903.08 457.31 C 906.75 457.54, 908.86 457.19, 912.59 456.04 C 916.33 454.90, 918.25 453.84, 921.75 451.59 C 925.26 449.33, 927.01 447.80, 930.12 444.77 C 933.22 441.75, 934.68 439.74, 937.27 436.47 C 939.85 433.20, 941.23 431.32, 943.04 428.43 C 944.84 425.53, 945.58 423.72, 946.31 421.98 C 947.04 420.24, 946.52 419.41, 946.68 419.70 C 946.84 420.00, 946.33 420.94, 947.12 423.44 C 947.90 425.94, 949.06 427.75, 950.60 432.22 C 952.15 436.68, 953.10 439.79, 954.83 445.77 C 956.56 451.75, 957.58 455.34, 959.24 462.10 C 960.91 468.86, 961.84 472.58, 963.17 479.57 C 964.50 486.56, 965.20 490.27, 965.90 497.04 C 966.60 503.82, 966.90 507.35, 966.68 513.46 C 966.47 519.57, 966.18 522.54, 964.83 527.60 C 963.48 532.66, 962.45 534.96, 959.94 538.78 C 957.43 542.59, 955.87 544.19, 952.27 546.68 C 948.68 549.17, 946.50 550.09, 941.95 551.24 C 937.41 552.38, 934.68 552.59, 929.55 552.40 C 924.42 552.21, 921.43 551.73, 916.30 550.31 C 911.18 548.89, 908.39 547.74, 903.95 545.29 C 899.51 542.84, 897.26 541.27, 894.09 538.05 C 890.93 534.84, 889.58 532.94, 888.12 529.24 C 886.66 525.54, 886.39 523.64, 886.78 519.56 C 887.18 515.48, 887.83 513.19, 890.11 508.84 C 892.40 504.48, 894.11 502.10, 898.21 497.78 C 902.30 493.46, 905.00 491.19, 910.60 487.23 C 916.19 483.26, 919.58 481.33, 926.17 477.96 C 932.76 474.59, 936.52 473.06, 943.52 470.38 C 950.53 467.70, 954.81 466.53, 961.18 464.57 C 967.55 462.62, 970.74 461.96, 975.37 460.60 C 980.00 459.24, 982.66 458.77, 984.34 457.76 C 986.01 456.76, 985.71 455.61, 983.75 455.58 C 981.79 455.55, 979.23 456.38, 974.54 457.61 C 969.85 458.83, 966.69 459.67, 960.29 461.71 C 953.89 463.76, 949.61 465.06, 942.53 467.82 C 935.46 470.57, 931.65 472.10, 924.92 475.49 C 918.19 478.88, 914.70 480.77, 908.88 484.76 C 903.06 488.75, 900.21 490.98, 895.80 495.45 C 891.39 499.91, 889.43 502.35, 886.84 507.09 C 884.26 511.83, 883.35 514.45, 882.86 519.17 C 882.38 523.89, 882.73 526.38, 884.43 530.70 C 886.13 535.01, 887.81 537.19, 891.36 540.76 C 894.90 544.33, 897.37 545.93, 902.16 548.55 C 906.95 551.17, 909.87 552.34, 915.32 553.86 C 920.77 555.37, 923.90 555.93, 929.41 556.14 C 934.92 556.35, 937.88 556.20, 942.89 554.92 C 947.89 553.65, 950.42 552.60, 954.43 549.76 C 958.44 546.91, 960.21 544.97, 962.93 540.71 C 965.64 536.44, 966.65 533.85, 968.00 528.42 C 969.35 522.98, 969.55 519.88, 969.70 513.55 C 969.85 507.21, 969.49 503.64, 968.75 496.74 C 968.01 489.84, 967.29 486.11, 966.00 479.04 C 964.71 471.97, 963.80 468.23, 962.30 461.39 C 960.79 454.55, 959.88 450.93, 958.48 444.82 C 957.08 438.71, 956.45 435.61, 955.28 430.84 C 954.12 426.08, 954.19 423.78, 952.65 421.00 C 951.10 418.23, 949.65 417.39, 947.56 416.96 C 945.48 416.53, 944.11 417.17, 942.22 418.85 C 940.33 420.53, 939.91 422.46, 938.11 425.37 C 936.31 428.28, 935.51 430.23, 933.22 433.41 C 930.93 436.58, 929.50 438.46, 926.66 441.23 C 923.82 444.00, 922.14 445.33, 919.02 447.26 C 915.90 449.19, 914.16 449.98, 911.05 450.88 C 907.93 451.78, 906.29 451.97, 903.45 451.76 C 900.61 451.56, 899.25 451.15, 896.83 449.85 C 894.41 448.54, 893.21 447.58, 891.35 445.24 C 889.48 442.90, 888.67 441.11, 887.52 438.15 C 886.36 435.20, 886.49 433.08, 885.58 430.45 C 884.66 427.81, 884.12 426.50, 882.93 424.99 C 881.75 423.49, 880.99 422.75, 879.65 422.93 C 878.32 423.11, 877.46 423.71, 876.24 425.89 C 875.03 428.07, 875.10 430.36, 873.60 433.83 C 872.09 437.29, 871.19 439.52, 868.72 443.22 C 866.25 446.93, 864.68 449.01, 861.23 452.33 C 857.79 455.65, 855.72 457.31, 851.50 459.83 C 847.28 462.35, 844.87 463.41, 840.15 464.94 C 835.43 466.47, 832.80 467.02, 827.90 467.46 C 823.00 467.89, 820.37 467.82, 815.65 467.11 C 810.93 466.40, 808.46 465.70, 804.29 463.90 C 800.12 462.10, 798.06 460.83, 794.80 458.09 C 791.55 455.35, 790.07 453.60, 788.03 450.20 C 785.99 446.80, 785.27 444.76, 784.59 441.11 C 783.92 437.47, 784.07 435.44, 784.66 431.96 C 785.24 428.47, 785.96 426.54, 787.53 423.69 C 789.09 420.84, 790.32 419.53, 792.49 417.72 C 794.66 415.91, 796.09 415.38, 798.38 414.64 C 800.66 413.91, 801.83 413.84, 803.92 414.05 C 806.01 414.26, 807.11 414.65, 808.81 415.70 C 810.50 416.74, 811.37 417.52, 812.41 419.27 C 813.44 421.03, 813.75 422.16, 813.98 424.46 C 814.22 426.76, 814.23 428.15, 813.58 430.78 C 812.93 433.42, 812.32 435.04, 810.72 437.63 C 809.12 440.21, 808.01 441.52, 805.59 443.70 C 803.17 445.88, 801.72 446.94, 798.62 448.52 C 795.53 450.10, 793.83 450.78, 790.09 451.62 C 786.36 452.45, 784.31 452.66, 779.93 452.71 C 775.56 452.76, 773.20 452.56, 768.23 451.87 C 763.27 451.19, 760.59 450.58, 755.12 449.29 C 749.66 448.00, 746.70 447.12, 740.89 445.43 C 735.09 443.74, 732.05 442.69, 726.09 440.84 C 720.12 438.98, 716.97 437.95, 711.06 436.15 C 705.15 434.35, 702.06 433.42, 696.53 431.84 C 691.00 430.27, 688.27 429.57, 683.41 428.29 C 678.54 427.01, 676.12 426.41, 672.19 425.44 C 668.26 424.46, 666.46 423.50, 663.75 423.42 C 661.04 423.33, 659.86 424.15, 658.63 425.02 C 657.40 425.89, 657.17 427.00, 657.60 427.78 C 658.03 428.56, 658.84 429.13, 660.78 428.92 C 662.72 428.70, 664.14 428.21, 667.32 426.70 C 670.51 425.19, 672.49 424.04, 676.72 421.39 C 680.95 418.74, 683.51 417.11, 688.48 413.44 C 693.44 409.77, 696.37 407.51, 701.56 403.06 C 706.74 398.60, 709.61 396.03, 714.42 391.18 C 719.22 386.33, 721.68 383.58, 725.58 378.79 C 729.48 374.00, 731.26 371.30, 733.92 367.23 C 736.58 363.16, 737.82 361.35, 738.88 358.44 C 739.95 355.52, 739.68 353.97, 739.24 352.65 C 738.80 351.33, 737.78 351.11, 736.68 351.82" style="stroke: black; fill: black;"/><path d="M 1049.67,451.15 C 1050.71 451.36, 1051.58 451.23, 1051.85 450.74 C 1052.13 450.25, 1051.82 449.44, 1051.03 448.70 C 1050.23 447.96, 1048.93 447.26, 1047.86 447.04 C 1046.79 446.82, 1045.91 447.07, 1045.66 447.60 C 1045.42 448.12, 1045.84 448.96, 1046.64 449.67 C 1047.44 450.38, 1048.62 450.93, 1049.67 451.15" style="stroke: black; fill: black;"/></svg>